<svg id="svg" version="1.1" xmlns="http://www.w3.org/2000/svg" xmlns:xlink="http://www.w3.org/1999/xlink" width="400" height="388.05970149253733" viewBox="0, 0, 400,388.05970149253733"><g id="svgg"><path id="path0" d="M0.000 194.175 L 0.000 388.350 200.000 388.350 L 400.000 388.350 400.000 194.175 L 400.000 0.000 200.000 0.000 L 0.000 0.000 0.000 194.175 M209.515 27.387 C 221.760 29.717,233.428 34.880,238.447 40.190 C 239.194 40.980,240.544 42.140,241.445 42.767 C 242.347 43.393,243.593 44.644,244.214 45.547 C 244.835 46.450,246.020 47.889,246.847 48.744 C 248.908 50.877,251.225 54.179,252.144 56.295 C 252.565 57.265,253.300 58.583,253.777 59.223 C 255.357 61.343,256.308 63.628,257.535 68.248 C 258.202 70.760,259.180 74.388,259.709 76.311 C 260.728 80.015,261.625 103.507,261.089 112.427 C 260.667 119.443,263.394 123.340,267.651 121.808 C 268.569 121.477,271.742 120.564,274.703 119.779 C 277.663 118.994,281.682 117.657,283.635 116.809 C 289.646 114.197,309.571 109.512,314.650 109.517 C 323.629 109.525,338.055 113.502,344.741 117.811 C 346.192 118.746,348.252 119.954,349.320 120.496 C 350.388 121.038,351.782 122.029,352.418 122.698 C 353.054 123.368,354.364 124.432,355.331 125.063 C 356.297 125.694,357.780 127.136,358.626 128.268 C 359.472 129.399,360.825 130.795,361.633 131.370 C 362.440 131.945,363.582 133.303,364.172 134.389 C 364.761 135.474,366.095 137.680,367.137 139.291 C 368.180 140.902,369.629 143.905,370.358 145.965 C 371.087 148.024,372.049 150.495,372.495 151.456 C 376.731 160.581,377.350 178.472,373.723 186.969 C 373.171 188.262,372.071 191.155,371.277 193.398 C 369.699 197.861,368.899 199.588,367.592 201.359 C 367.119 202.000,366.012 203.763,365.133 205.277 C 364.244 206.807,362.765 208.660,361.802 209.449 C 360.850 210.230,359.434 211.735,358.657 212.794 C 356.965 215.098,351.874 219.392,348.720 221.175 C 347.470 221.882,345.696 222.975,344.777 223.605 C 341.787 225.657,338.449 227.115,334.769 227.979 C 332.784 228.445,330.043 229.419,328.680 230.142 C 327.316 230.865,324.150 231.991,321.644 232.644 C 314.217 234.578,312.931 234.979,310.485 236.123 C 309.204 236.723,307.194 237.643,306.019 238.168 C 302.547 239.720,300.631 241.641,301.359 242.840 C 301.680 243.368,302.784 245.211,303.814 246.936 C 304.843 248.662,306.435 250.909,307.351 251.930 C 308.267 252.951,309.388 254.485,309.843 255.340 C 310.297 256.194,311.454 257.854,312.412 259.029 C 313.371 260.204,314.815 262.090,315.621 263.221 C 316.428 264.352,318.002 266.492,319.121 267.977 C 320.239 269.462,321.791 271.945,322.570 273.494 C 323.349 275.043,324.463 277.010,325.047 277.864 C 327.076 280.836,327.855 282.879,329.178 288.703 C 329.911 291.926,330.806 295.786,331.168 297.282 C 332.496 302.765,332.106 310.842,330.127 318.835 C 327.472 329.560,327.105 330.658,325.283 333.319 C 324.351 334.680,323.243 336.565,322.821 337.508 C 321.089 341.377,311.228 352.296,307.935 353.991 C 307.202 354.368,305.875 355.307,304.988 356.076 C 302.276 358.427,291.933 363.385,288.327 364.063 C 275.707 366.438,260.618 366.202,251.144 363.483 C 241.917 360.834,227.441 349.768,221.188 340.583 C 219.952 338.767,218.099 336.387,217.070 335.294 C 216.041 334.201,214.916 332.628,214.571 331.799 C 214.225 330.970,213.365 329.680,212.660 328.932 C 211.954 328.184,210.524 326.350,209.482 324.854 C 200.924 312.576,198.699 312.339,191.559 322.938 C 190.686 324.233,189.149 326.242,188.143 327.404 C 187.138 328.565,185.967 330.301,185.542 331.262 C 185.117 332.223,183.921 333.883,182.884 334.951 C 181.848 336.019,180.338 337.983,179.529 339.315 C 176.977 343.516,166.887 354.175,165.461 354.175 C 165.275 354.175,164.411 354.769,163.541 355.495 C 160.738 357.837,149.624 363.362,146.375 364.027 C 130.714 367.238,111.828 365.989,103.689 361.204 C 102.301 360.387,100.029 359.182,98.641 358.526 C 97.252 357.869,95.417 356.735,94.563 356.005 C 93.709 355.275,92.460 354.394,91.788 354.049 C 88.812 352.517,79.718 342.497,77.275 338.058 C 76.570 336.777,75.516 335.204,74.933 334.563 C 73.256 332.719,72.810 331.522,70.729 323.288 C 69.652 319.023,68.575 314.922,68.336 314.175 C 67.569 311.773,67.427 302.722,68.099 299.029 C 69.891 289.178,73.155 278.864,75.233 276.485 C 75.877 275.748,76.948 274.063,77.614 272.740 C 78.280 271.417,79.581 269.406,80.505 268.271 C 81.430 267.136,82.850 265.160,83.661 263.880 C 84.473 262.600,86.140 260.330,87.367 258.835 C 88.594 257.340,89.962 255.400,90.408 254.524 C 90.854 253.648,91.971 252.147,92.891 251.188 C 95.131 248.852,98.814 242.340,98.339 241.553 C 97.787 240.639,94.330 238.133,93.246 237.860 C 92.707 237.725,91.035 237.015,89.531 236.282 C 88.027 235.550,83.825 234.105,80.194 233.071 C 76.563 232.038,72.453 230.642,71.061 229.968 C 69.668 229.294,67.047 228.416,65.235 228.015 C 51.170 224.907,34.871 209.898,28.976 194.625 C 28.206 192.630,27.227 190.508,26.800 189.908 C 22.954 184.507,23.197 157.880,27.157 150.907 C 27.774 149.821,28.909 147.240,29.680 145.172 C 32.732 136.979,43.896 123.683,50.485 120.391 C 51.447 119.911,53.391 118.754,54.807 117.819 C 64.710 111.282,82.093 108.186,93.981 110.841 C 96.437 111.390,99.757 112.118,101.359 112.461 C 107.469 113.766,111.798 115.087,115.922 116.905 C 120.710 119.015,131.570 121.940,134.620 121.941 C 135.740 121.942,137.731 119.605,138.249 117.683 C 138.524 116.660,138.629 110.487,138.557 99.523 C 138.439 81.419,138.582 79.571,140.596 73.204 C 141.205 71.282,142.272 67.893,142.968 65.673 C 143.664 63.453,144.835 60.657,145.570 59.459 C 146.305 58.262,147.177 56.757,147.508 56.117 C 149.872 51.538,154.281 46.484,161.540 40.030 C 172.802 30.018,193.990 24.434,209.515 27.387 " stroke="none" fill="#f9f5f2" fill-rule="evenodd"></path><path id="path1" d="M190.291 27.366 C 178.043 29.622,168.537 33.810,161.540 40.030 C 154.281 46.484,149.872 51.538,147.508 56.117 C 147.177 56.757,146.305 58.262,145.570 59.459 C 144.835 60.657,143.664 63.453,142.968 65.673 C 142.272 67.893,141.205 71.282,140.596 73.204 C 138.582 79.571,138.439 81.419,138.557 99.523 C 138.720 124.274,139.232 123.557,124.078 119.760 C 121.942 119.225,118.272 117.940,115.922 116.905 C 111.798 115.087,107.469 113.766,101.359 112.461 C 99.757 112.118,96.437 111.390,93.981 110.841 C 82.093 108.186,64.710 111.282,54.807 117.819 C 53.391 118.754,51.447 119.911,50.485 120.391 C 43.896 123.683,32.732 136.979,29.680 145.172 C 28.909 147.240,27.774 149.821,27.157 150.907 C 23.197 157.880,22.954 184.507,26.800 189.908 C 27.227 190.508,28.206 192.630,28.976 194.625 C 34.871 209.898,51.170 224.907,65.235 228.015 C 67.047 228.416,69.668 229.294,71.061 229.968 C 72.453 230.642,76.563 232.038,80.194 233.071 C 83.825 234.105,88.027 235.550,89.531 236.282 C 91.035 237.015,92.707 237.725,93.246 237.860 C 94.330 238.133,97.787 240.639,98.339 241.553 C 98.814 242.340,95.131 248.852,92.891 251.188 C 91.971 252.147,90.854 253.648,90.408 254.524 C 89.962 255.400,88.594 257.340,87.367 258.835 C 86.140 260.330,84.473 262.600,83.661 263.880 C 82.850 265.160,81.430 267.136,80.505 268.271 C 79.581 269.406,78.280 271.417,77.614 272.740 C 76.948 274.063,75.877 275.748,75.233 276.485 C 73.155 278.864,69.891 289.178,68.099 299.029 C 67.427 302.722,67.569 311.773,68.336 314.175 C 68.575 314.922,69.652 319.023,70.729 323.288 C 72.810 331.522,73.256 332.719,74.933 334.563 C 75.516 335.204,76.570 336.777,77.275 338.058 C 79.718 342.497,88.812 352.517,91.788 354.049 C 92.460 354.394,93.709 355.275,94.563 356.005 C 95.417 356.735,97.252 357.869,98.641 358.526 C 100.029 359.182,102.301 360.387,103.689 361.204 C 111.828 365.989,130.714 367.238,146.375 364.027 C 149.624 363.362,160.738 357.837,163.541 355.495 C 164.411 354.769,165.275 354.175,165.461 354.175 C 166.887 354.175,176.977 343.516,179.529 339.315 C 180.338 337.983,181.848 336.019,182.884 334.951 C 183.921 333.883,185.117 332.223,185.542 331.262 C 185.967 330.301,187.138 328.565,188.143 327.404 C 189.149 326.242,190.686 324.233,191.559 322.938 C 198.699 312.339,200.924 312.576,209.482 324.854 C 210.524 326.350,211.954 328.184,212.660 328.932 C 213.365 329.680,214.225 330.970,214.571 331.799 C 214.916 332.628,216.041 334.201,217.070 335.294 C 218.099 336.387,219.952 338.767,221.188 340.583 C 227.441 349.768,241.917 360.834,251.144 363.483 C 260.618 366.202,275.707 366.438,288.327 364.063 C 291.933 363.385,302.276 358.427,304.988 356.076 C 305.875 355.307,307.202 354.368,307.935 353.991 C 311.228 352.296,321.089 341.377,322.821 337.508 C 323.243 336.565,324.351 334.680,325.283 333.319 C 327.105 330.658,327.472 329.560,330.127 318.835 C 332.106 310.842,332.496 302.765,331.168 297.282 C 330.806 295.786,329.911 291.926,329.178 288.703 C 327.855 282.879,327.076 280.836,325.047 277.864 C 324.463 277.010,323.349 275.043,322.570 273.494 C 321.791 271.945,320.239 269.462,319.121 267.977 C 318.002 266.492,316.428 264.352,315.621 263.221 C 314.815 262.090,313.371 260.204,312.412 259.029 C 311.454 257.854,310.297 256.194,309.843 255.340 C 309.388 254.485,308.267 252.951,307.351 251.930 C 306.435 250.909,304.843 248.662,303.814 246.936 C 302.784 245.211,301.680 243.368,301.359 242.840 C 300.631 241.641,302.547 239.720,306.019 238.168 C 307.194 237.643,309.204 236.723,310.485 236.123 C 312.931 234.979,314.217 234.578,321.644 232.644 C 324.150 231.991,327.316 230.865,328.680 230.142 C 330.043 229.419,332.784 228.445,334.769 227.979 C 338.449 227.115,341.787 225.657,344.777 223.605 C 345.696 222.975,347.470 221.882,348.720 221.175 C 351.874 219.392,356.965 215.098,358.657 212.794 C 359.434 211.735,360.850 210.230,361.802 209.449 C 362.765 208.660,364.244 206.807,365.133 205.277 C 366.012 203.763,367.119 202.000,367.592 201.359 C 368.899 199.588,369.699 197.861,371.277 193.398 C 372.071 191.155,373.171 188.262,373.723 186.969 C 377.350 178.472,376.731 160.581,372.495 151.456 C 372.049 150.495,371.087 148.024,370.358 145.965 C 369.629 143.905,368.180 140.902,367.137 139.291 C 366.095 137.680,364.761 135.474,364.172 134.389 C 363.582 133.303,362.440 131.945,361.633 131.370 C 360.825 130.795,359.472 129.399,358.626 128.268 C 357.780 127.136,356.297 125.694,355.331 125.063 C 354.364 124.432,353.054 123.368,352.418 122.698 C 351.782 122.029,350.388 121.038,349.320 120.496 C 348.252 119.954,346.192 118.746,344.741 117.811 C 338.055 113.502,323.629 109.525,314.650 109.517 C 309.571 109.512,289.646 114.197,283.635 116.809 C 281.682 117.657,277.663 118.994,274.703 119.779 C 271.742 120.564,268.569 121.477,267.651 121.808 C 263.394 123.340,260.667 119.443,261.089 112.427 C 261.625 103.507,260.728 80.015,259.709 76.311 C 259.180 74.388,258.202 70.760,257.535 68.248 C 256.308 63.628,255.357 61.343,253.777 59.223 C 253.300 58.583,252.565 57.265,252.144 56.295 C 251.225 54.179,248.908 50.877,246.847 48.744 C 246.020 47.889,244.835 46.450,244.214 45.547 C 243.593 44.644,242.347 43.393,241.445 42.767 C 240.544 42.140,239.194 40.980,238.447 40.190 C 229.659 30.892,205.733 24.521,190.291 27.366 " stroke="none" fill="#e45c44" fill-rule="evenodd"></path></g></svg>